<svg xmlns="http://www.w3.org/2000/svg" width="960" height="620" viewBox="0 0 960 620">
<rect width="100%" height="100%" fill="white"/>
<text x="480.0" y="27" text-anchor="middle" font-family="sans-serif" font-size="18">Distance to dock goal</text>
<rect x="70" y="45" width="820" height="480" fill="none" stroke="#64748b"/>
<text x="480.0" y="567" text-anchor="middle" font-family="sans-serif" font-size="13">wall time (s)</text>
<text x="18" y="285.0" text-anchor="middle" transform="rotate(-90 18 285.0)" font-family="sans-serif" font-size="13">distance (m)</text>
<line x1="70.0" y1="45" x2="70.0" y2="525" stroke="#e2e8f0"/>
<text x="70.0" y="544" text-anchor="middle" font-family="monospace" font-size="11">-12.36</text>
<line x1="70" y1="525.0" x2="890" y2="525.0" stroke="#e2e8f0"/>
<text x="62" y="529.0" text-anchor="end" font-family="monospace" font-size="11">-0.95</text>
<line x1="234.0" y1="45" x2="234.0" y2="525" stroke="#e2e8f0"/>
<text x="234.0" y="544" text-anchor="middle" font-family="monospace" font-size="11">42.01</text>
<line x1="70" y1="429.0" x2="890" y2="429.0" stroke="#e2e8f0"/>
<text x="62" y="433.0" text-anchor="end" font-family="monospace" font-size="11">4.06</text>
<line x1="398.0" y1="45" x2="398.0" y2="525" stroke="#e2e8f0"/>
<text x="398.0" y="544" text-anchor="middle" font-family="monospace" font-size="11">96.38</text>
<line x1="70" y1="333.0" x2="890" y2="333.0" stroke="#e2e8f0"/>
<text x="62" y="337.0" text-anchor="end" font-family="monospace" font-size="11">9.07</text>
<line x1="562.0" y1="45" x2="562.0" y2="525" stroke="#e2e8f0"/>
<text x="562.0" y="544" text-anchor="middle" font-family="monospace" font-size="11">150.74</text>
<line x1="70" y1="237.0" x2="890" y2="237.0" stroke="#e2e8f0"/>
<text x="62" y="241.0" text-anchor="end" font-family="monospace" font-size="11">14.09</text>
<line x1="726.0" y1="45" x2="726.0" y2="525" stroke="#e2e8f0"/>
<text x="726.0" y="544" text-anchor="middle" font-family="monospace" font-size="11">205.11</text>
<line x1="70" y1="141.0" x2="890" y2="141.0" stroke="#e2e8f0"/>
<text x="62" y="145.0" text-anchor="end" font-family="monospace" font-size="11">19.10</text>
<line x1="890.0" y1="45" x2="890.0" y2="525" stroke="#e2e8f0"/>
<text x="890.0" y="544" text-anchor="middle" font-family="monospace" font-size="11">259.48</text>
<line x1="70" y1="45.0" x2="890" y2="45.0" stroke="#e2e8f0"/>
<text x="62" y="49.0" text-anchor="end" font-family="monospace" font-size="11">24.11</text>
<polyline points="107.27,66.82 113.81,71.57 114.19,71.85 114.63,72.14 115.02,72.44 115.49,72.78 115.96,73.11 116.33,73.46 116.83,73.79 117.20,74.11 117.65,74.39 118.05,74.69 118.40,74.97 118.86,75.28 119.23,75.59 119.70,75.94 120.08,76.30 120.57,76.66 121.03,76.98 121.40,77.30 121.89,77.61 122.25,77.95 122.63,78.32 123.09,78.72 123.46,79.11 123.95,79.49 124.43,79.84 124.78,80.17 125.29,80.49 125.65,80.81 126.11,81.14 126.49,81.47 126.86,81.83 127.30,82.21 127.69,82.63 128.15,83.05 128.65,83.47 128.98,83.86 129.47,84.22 129.87,84.56 130.22,84.89 130.69,85.23 131.09,85.58 131.55,85.95 131.97,86.32 132.50,86.72 132.87,87.13 133.22,87.56 133.73,87.99 134.09,88.40 134.57,88.76 134.94,89.08 135.31,89.37 135.77,89.68 136.13,90.03 136.61,90.45 137.09,90.92 137.42,91.40 137.95,91.87 138.31,92.28 138.76,92.63 139.13,92.96 139.53,93.29 139.98,93.64 140.40,94.01 140.95,94.41 141.21,94.81 141.64,95.23 142.17,95.65 142.53,96.07 143.00,96.47 143.38,96.86 143.78,97.24 144.21,97.62 144.58,98.01 144.99,98.41 145.52,98.82 145.91,99.24 146.40,99.65 146.75,100.03 147.21,100.40 147.57,100.76 147.97,101.13 148.43,101.51 148.85,101.90 149.28,102.30 149.78,102.71 150.12,103.14 150.62,103.57 150.97,104.00 151.43,104.41 151.80,104.80 152.19,105.17 152.66,105.54 153.10,105.92 153.50,106.30 153.98,106.70 154.32,107.10 154.85,107.49 155.20,107.87 155.69,108.24 156.02,108.64 156.41,109.06 156.88,109.50 157.32,109.95 157.73,110.39 158.09,110.78 158.54,111.14 159.06,111.47 159.42,111.81 159.89,112.16 160.27,112.53 160.67,112.92 161.10,113.33 161.48,113.76 161.94,114.20 162.43,114.65 162.79,115.10 163.26,115.53 163.64,115.91 164.11,116.26 164.49,116.59 164.87,116.94 165.33,117.32 165.75,117.72 166.17,118.14 166.64,118.56 166.97,118.97 167.50,119.38 167.89,119.78 168.24,120.20 168.70,120.63 169.12,121.07 169.53,121.49 169.95,121.87 170.37,122.22 170.89,122.56 171.19,122.92 171.71,123.32 172.09,123.76 172.56,124.20 172.95,124.62 173.31,125.03 173.77,125.43 174.13,125.83 174.62,126.23 175.10,126.64 175.46,127.07 175.96,127.51 176.32,127.96 176.79,128.39 177.17,128.80 177.57,129.17 177.98,129.51 178.44,129.86 178.83,130.23 179.21,130.62 179.68,131.02 180.17,131.46 180.55,131.91 181.01,132.35 181.39,132.76 181.75,133.13 182.23,133.47 182.59,133.81 183.06,134.18 183.55,134.58 183.90,135.02 184.39,135.45 184.77,135.87 185.12,136.28 185.61,136.68 185.99,137.07 186.44,137.44 186.82,137.80 187.28,138.16 187.78,138.53 188.13,138.92 188.62,139.32 189.00,139.74 189.45,140.16 189.83,140.59 190.19,141.01 190.66,141.42 191.03,141.81 191.51,142.18 192.01,142.52 192.32,142.85 192.86,143.19 193.20,143.56 193.66,143.97 194.05,144.40 194.42,144.84 194.90,145.26 195.28,145.67 195.68,146.07 196.20,146.47 196.57,146.89 197.07,147.30 197.42,147.70 197.92,148.06 198.27,148.39 198.68,148.74 199.12,149.11 199.55,149.51 199.95,149.96 200.44,150.41 200.79,150.86 201.27,151.27 201.66,151.65 202.13,152.02 202.50,152.39 202.87,152.78 203.44,153.19 203.69,153.59 204.16,153.97 204.67,154.34 205.02,154.70 205.49,155.07 205.88,155.46 206.23,155.87 206.72,156.31 207.11,156.76 207.56,157.21 207.93,157.64 208.35,158.03 208.90,158.37 209.24,158.67 209.74,158.98 210.11,159.33 210.56,159.76 210.95,160.23 211.35,160.72 211.77,161.17 212.23,161.56 212.62,161.90 213.09,162.23 213.46,162.59 213.97,162.98 214.33,163.40 214.78,163.82 215.14,164.24 215.54,164.66 216.01,165.07 216.41,165.48 216.85,165.86 217.35,166.24 217.69,166.62 218.16,167.01 218.53,167.42 219.03,167.83 219.39,168.24 219.77,168.65 220.21,169.05 220.68,169.47 221.06,169.88 221.54,170.27 221.91,170.66 222.40,171.01 222.76,171.37 223.24,171.74 223.61,172.14 223.97,172.56 224.46,172.99 224.82,173.42 225.28,173.84 225.66,174.26 226.13,174.66 226.64,175.05 227.00,175.44 227.45,175.82 227.82,176.18 228.20,176.53 228.67,176.89 229.04,177.26 229.50,177.66 229.88,178.07 230.36,178.50 230.85,178.92 231.21,179.33 231.68,179.74 232.05,180.15 232.43,180.55 233.00,180.93 233.26,181.29 233.73,181.65 234.23,182.03 234.58,182.42 235.07,182.82 235.46,183.24 235.90,183.65 236.26,184.04 236.69,184.41 237.12,184.78 237.53,185.15 237.95,185.53 238.34,185.94 238.80,186.35 239.30,186.79 239.65,187.22 240.14,187.65 240.48,188.06 240.87,188.46 241.34,188.85 241.71,189.23 242.30,189.61 242.65,189.98 243.00,190.33 243.53,190.65 243.89,191.00 244.36,191.39 244.73,191.84 245.09,192.32 245.57,192.80 246.02,193.26 246.41,193.65 246.79,194.01 247.25,194.34 247.74,194.68 248.11,195.04 248.57,195.41 248.93,195.80 249.32,196.20 249.79,196.63 250.22,197.06 250.64,197.50 251.13,197.94 251.49,198.36 251.96,198.74 252.31,199.07 252.80,199.39 253.18,199.73 253.55,200.10 254.01,200.52 254.38,200.98 254.81,201.45 255.24,201.93 255.67,202.37 256.18,202.80 256.56,203.20 257.03,203.60 257.40,204.01 257.81,204.45 258.24,204.89 258.60,205.30 259.07,205.68 259.45,206.04 259.92,206.40 260.39,206.76 260.78,207.14 261.14,207.53 261.62,207.94 261.99,208.35 262.45,208.76 262.88,209.16 263.41,209.58 263.67,209.99 264.16,210.38 264.62,210.74 264.99,211.06 265.36,211.38 265.84,211.73 266.21,212.12 266.79,212.57 267.10,213.03 267.48,213.48 267.89,213.88 268.36,214.24 268.87,214.55 269.23,214.86 269.58,215.21 270.08,215.61 270.45,216.05 270.89,216.50 271.34,216.94 271.75,217.34 272.25,217.74 272.59,218.11 273.09,218.47 273.45,218.82 273.81,219.17 274.27,219.54 274.66,219.91 275.14,220.31 275.55,220.69 275.96,221.07 276.48,221.46 276.81,221.86 277.30,222.30 277.67,222.75 278.14,223.19 278.52,223.59 278.92,223.95 279.34,224.26 279.76,224.57 280.15,224.90 280.56,225.30 281.01,225.74 281.52,226.21 281.88,226.67 282.36,227.08 282.73,227.45 283.15,227.75 283.56,228.07 283.99,228.41 284.42,228.81 284.91,229.25 285.26,229.70 285.74,230.15 286.11,230.58 286.49,230.98 286.96,231.35 287.37,231.70 287.78,232.04 288.20,232.38 288.64,232.76 289.01,233.15 289.48,233.57 289.96,234.00 290.36,234.42 290.80,234.82 291.18,235.20 291.56,235.58 292.01,235.95 292.44,236.35 292.85,236.75 293.35,237.17 293.67,237.58 294.20,238.00 294.56,238.41 295.02,238.80 295.42,239.20 295.82,239.58 296.22,239.99 296.66,240.39 297.09,240.81 297.58,241.25 297.88,241.70 298.40,242.13 298.78,242.56 299.14,242.97 299.63,243.38 300.04,243.78 300.47,244.17 300.91,244.53 301.30,244.88 301.79,245.19 302.11,245.51 302.63,245.83 302.99,246.21 303.49,246.64 303.87,247.13 304.24,247.64 304.68,248.09 305.11,248.47 305.53,248.78 306.03,249.07 306.37,249.37 306.88,249.73 307.24,250.14 307.70,250.57 308.08,251.00 308.44,251.41 309.02,251.82 309.28,252.20 309.75,252.58 310.12,252.95 310.60,253.32 311.10,253.66 311.46,254.01 311.93,254.38 312.32,254.77 312.67,255.19 313.13,255.63 313.55,256.05 313.99,256.47 314.46,256.86 314.82,257.24 315.33,257.62 315.69,257.99 316.14,258.32 316.52,258.65 316.89,259.00 317.34,259.40 317.78,259.85 318.21,260.33 318.67,260.79 319.00,261.19 319.54,261.53 319.91,261.85 320.36,262.20 320.73,262.59 321.12,263.03 321.59,263.47 321.99,263.89 322.44,264.26 322.89,264.59 323.27,264.93 323.77,265.32 324.13,265.75 324.60,266.19 324.98,266.65 325.35,267.07 325.81,267.44 326.23,267.76 326.66,268.07 327.14,268.42 327.45,268.82 327.99,269.25 328.35,269.70 328.70,270.13 329.18,270.54 329.57,270.93 330.02,271.29 330.46,271.63 330.86,271.99 331.37,272.37 331.71,272.78 332.21,273.20 332.58,273.60 333.04,273.99 333.41,274.34 333.78,274.70 334.25,275.07 334.62,275.48 335.09,275.92 335.57,276.37 335.95,276.83 336.43,277.25 336.79,277.66 337.25,278.04 337.62,278.42 338.01,278.80 338.47,279.21 338.86,279.61 339.27,280.02 339.81,280.44 340.16,280.87 340.65,281.27 341.03,281.64 341.49,281.99 341.84,282.34 342.27,282.69 342.70,283.05 343.08,283.43 343.55,283.80 344.02,284.17 344.38,284.53 344.89,284.90 345.24,285.26 345.72,285.63 346.09,286.02 346.46,286.43 346.91,286.83 347.37,287.24 347.87,287.64 348.24,288.02 348.60,288.38 349.10,288.74 349.46,289.10 349.92,289.46 350.29,289.82 350.68,290.18 351.14,290.56 351.51,290.94 351.94,291.33 352.47,291.73 352.83,292.14 353.32,292.56 353.69,292.96 354.16,293.35 354.54,293.72 354.91,294.08 355.36,294.45 355.75,294.82 356.20,295.19 356.69,295.56 357.01,295.94 357.55,296.34 357.93,296.74 358.28,297.14 358.75,297.51 359.16,297.87 359.58,298.21 359.96,298.56 360.43,298.91 360.81,299.31 361.27,299.73 361.78,300.18 362.14,300.62 362.61,301.04 362.98,301.43 363.35,301.78 363.82,302.12 364.20,302.45 364.65,302.81 365.16,303.19 365.47,303.60 365.99,304.01 366.34,304.42 366.83,304.81 367.20,305.18 367.61,305.54 368.03,305.89 368.49,306.27 369.00,306.67 369.37,307.09 369.74,307.52 370.21,307.93 370.60,308.32 370.93,308.69 371.41,309.04 371.81,309.38 372.26,309.74 372.66,310.12 373.09,310.52 373.48,310.92 373.90,311.31 374.45,311.71 374.82,312.12 375.27,312.55 375.64,312.98 376.03,313.40 376.48,313.80 376.92,314.16 377.33,314.50 377.82,314.85 378.17,315.23 378.66,315.65 379.02,316.08 379.49,316.50 379.88,316.91 380.25,317.31 380.70,317.69 381.07,318.03 381.55,318.37 381.93,318.69 382.41,319.05 382.88,319.42 383.26,319.80 383.72,320.19 384.10,320.58 384.46,320.95 384.92,321.32 385.29,321.68 385.73,322.05 386.14,322.43 386.59,322.81 387.11,323.20 387.48,323.59 387.94,323.97 388.30,324.34 388.70,324.68 389.14,325.03 389.52,325.36 389.99,325.72 390.46,326.08 390.81,326.45 391.33,326.85 391.67,327.28 392.06,327.71 392.55,328.11 392.91,328.49 393.37,328.83 393.77,329.15 394.22,329.47 394.72,329.82 395.03,330.20 395.53,330.58 395.91,330.97 396.38,331.36 396.77,331.76 397.17,332.15 397.59,332.53 398.01,332.90 398.44,333.26 398.81,333.62 399.26,333.97 399.78,334.35 400.15,334.75 400.60,335.16 400.98,335.54 401.36,335.88 401.82,336.19 402.21,336.51 402.67,336.88 403.16,337.28 403.51,337.72 403.99,338.16 404.36,338.57 404.72,338.93 405.22,339.27 405.59,339.60 406.04,339.94 406.45,340.29 406.89,340.65 407.39,341.03 407.73,341.41 408.21,341.82 408.58,342.20 409.06,342.57 409.42,342.93 409.81,343.29 410.25,343.67 410.68,344.06 411.13,344.45 411.60,344.79 411.95,345.12 412.43,345.44 412.81,345.78 413.26,346.17 413.64,346.58 414.02,347.01 414.48,347.43 414.86,347.83 415.34,348.21 415.70,348.58 416.19,348.94 416.67,349.29 417.04,349.62 417.51,349.97 417.89,350.32 418.26,350.70 418.71,351.11 419.09,351.54 419.55,351.98 420.05,352.41 420.40,352.81 420.90,353.15 421.27,353.46 421.72,353.75 422.09,354.06 422.47,354.37 422.93,354.71 423.30,355.08 423.78,355.45 424.27,355.84 424.62,356.25 424.99,356.66 425.47,357.06 425.83,357.44 426.32,357.84 426.70,358.23 427.17,358.59 427.52,358.94 427.94,359.27 428.50,359.59 428.84,359.92 429.32,360.26 429.68,360.61 430.18,361.01 430.54,361.41 430.91,361.82 431.38,362.21 431.81,362.60 432.23,362.99 432.59,363.37 433.07,363.73 433.54,364.06 433.92,364.37 434.40,364.66 434.79,364.97 435.14,365.31 435.61,365.67 435.98,366.05 436.45,366.45 436.95,366.86 437.27,367.28 437.77,367.70 438.14,368.08 438.61,368.46 438.98,368.81 439.36,369.13 439.82,369.44 440.23,369.75 440.67,370.09 441.04,370.43 441.53,370.79 441.99,371.16 442.37,371.56 442.85,371.95 443.20,372.37 443.59,372.78 444.04,373.17 444.42,373.52 444.84,373.85 445.38,374.16 445.74,374.45 446.24,374.77 446.60,375.09 447.07,375.45 447.44,375.81 447.85,376.19 448.29,376.58 448.69,376.97 449.23,377.36 449.61,377.72 449.96,378.06 450.44,378.37 450.81,378.68 451.28,378.99 451.64,379.32 452.05,379.69 452.48,380.06 452.87,380.44 453.33,380.83 453.83,381.19 454.20,381.54 454.68,381.88 455.03,382.23 455.51,382.59 455.88,382.96 456.29,383.35 456.71,383.76 457.14,384.15 457.52,384.54 457.92,384.92 458.41,385.29 458.91,385.65 459.26,386.02 459.74,386.36 460.11,386.69 460.49,386.99 460.94,387.29 461.33,387.60 461.73,387.95 462.16,388.30 462.63,388.64 463.13,388.98 463.50,389.31 463.86,389.65 464.35,390.01 464.69,390.36 465.16,390.69 465.54,391.00 466.01,391.29 466.51,391.59 466.82,391.91 467.34,392.26 467.69,392.62 468.18,392.97 468.53,393.28 468.97,393.58 469.40,393.89 469.76,394.24 470.25,394.62 470.73,394.99 471.08,395.35 471.48,395.68 471.95,395.99 472.41,396.28 472.78,396.57 473.15,396.86 473.60,397.17 474.02,397.49 474.57,397.83 474.83,398.18 475.30,398.53 475.80,398.90 476.16,399.25 476.65,399.59 477.01,399.89 477.41,400.18 477.83,400.45 478.25,400.73 478.68,401.04 479.18,401.37 479.52,401.71 480.01,402.05 480.39,402.38 480.85,402.70 481.24,403.02 481.60,403.35 482.06,403.68 482.45,404.01 482.90,404.31 483.28,404.62 483.74,404.93 484.25,405.23 484.61,405.53 485.07,405.84 485.47,406.16 485.83,406.51 486.30,406.84 486.70,407.16 487.12,407.46 487.62,407.76 487.97,408.07 488.34,408.39 488.82,408.71 489.20,409.04 489.67,409.35 490.04,409.64 490.52,409.91 490.92,410.17 491.34,410.46 491.72,410.80 492.19,411.15 492.71,411.50 493.04,411.82 493.52,412.10 493.89,412.37 494.27,412.64 494.73,412.93 495.16,413.26 495.58,413.62 495.94,413.97 496.41,414.32 496.80,414.64 497.27,414.93 497.75,415.19 498.13,415.43 498.48,415.68 498.95,415.96 499.35,416.27 499.82,416.62 500.17,416.96 500.64,417.30 501.05,417.61 501.49,417.88 501.86,418.12 502.35,418.34 502.75,418.58 503.17,418.84 503.54,419.12 504.01,419.41 504.40,419.71 504.82,420.01 505.35,420.31 505.73,420.61 506.18,420.87 506.56,421.13 506.94,421.36 507.40,421.60 507.78,421.84 508.35,422.10 508.74,422.38 509.06,422.67 509.58,422.96 509.94,423.26 510.41,423.57 510.80,423.87 511.16,424.14 511.61,424.37 512.03,424.58 512.48,424.77 512.84,424.97 513.31,425.20 513.81,425.46 514.15,425.75 514.65,426.06 515.01,426.38 515.42,426.69 515.85,426.97 516.23,427.20 516.68,427.39 517.16,427.55 517.53,427.73 518.00,427.95 518.40,428.21 518.85,428.50 519.28,428.81 519.60,429.11 520.07,429.38 520.44,429.61 521.02,429.80 521.40,429.96 521.76,430.11 522.26,430.30 522.60,430.52 522.97,430.79 523.45,431.09 523.82,431.38 524.28,431.66 524.67,431.89 525.13,432.09 525.62,432.26 525.98,432.43 526.48,432.61 526.84,432.82 527.31,433.03 527.66,433.24 528.05,433.46 528.51,433.68 528.89,433.90 529.36,434.14 529.85,434.36 530.16,434.58 530.70,434.78 531.05,434.97 531.53,435.14 531.91,435.31 532.28,435.48 532.74,435.67 533.12,435.88 533.59,436.10 534.07,436.33 534.40,436.53 534.90,436.73 535.28,436.92 535.76,437.11 536.13,437.31 536.53,437.52 536.96,437.72 537.36,437.90 537.80,438.06 538.29,438.22 538.66,438.37 539.15,438.54 539.50,438.74 539.85,438.95 540.35,439.17 540.71,439.37 541.17,439.54 541.61,439.67 542.03,439.77 542.39,439.86 542.87,439.95 543.37,440.07 543.73,440.19 544.19,440.31 544.57,440.44 544.94,440.58 545.41,440.73 545.80,440.90 546.25,441.07 546.75,441.24 547.09,441.39 547.59,441.50 547.96,441.58 548.42,441.63 548.80,441.68 549.20,441.75 549.63,441.86 550.02,441.98 550.48,442.12 550.85,442.24 551.29,442.35 551.83,442.46 552.17,442.58 552.64,442.70 553.03,442.81 553.43,442.89 553.86,442.95 554.28,443.00 554.65,443.06 555.18,443.12 555.54,443.20 556.05,443.29 556.40,443.38 556.88,443.47 557.25,443.53 557.67,443.58 558.08,443.62 558.50,443.67 558.92,443.74 559.39,443.81 559.76,443.88 560.26,443.92 560.60,443.96 560.99,443.98 561.46,444.01 561.83,444.05 562.30,444.09 562.66,444.13 563.13,444.16 563.62,444.19 563.99,444.21 564.47,444.24 564.84,444.28 565.31,444.32 565.69,444.35 566.10,444.36 566.51,444.35 566.91,444.33 567.38,444.31 567.85,444.30 568.21,444.30 568.71,444.29 569.08,444.29 569.42,444.29 569.91,444.30 570.32,444.32 570.77,444.33 571.16,444.34 571.60,444.32 572.10,444.28 572.43,444.22 572.93,444.15 573.35,444.09 573.66,444.03 574.14,444.00 574.54,443.97 574.98,443.94 575.39,443.91 575.76,443.87 576.18,443.83 576.67,443.77 577.14,443.70 577.52,443.62 578.00,443.54 578.37,443.48 578.77,443.40 579.20,443.33 579.62,443.24 579.99,443.15 580.51,443.06 580.88,442.99 581.36,442.93 581.73,442.89 582.21,442.85 582.59,442.79 582.97,442.71 583.44,442.61 583.85,442.50 584.37,442.38 584.63,442.26 585.10,442.15 585.60,442.06 585.96,441.98 586.32,441.91 586.79,441.82 587.17,441.73 587.64,441.62 588.01,441.49 588.48,441.36 588.85,441.22 589.28,441.09 589.81,440.97 590.18,440.85 590.65,440.73 591.04,440.61 591.40,440.48 591.86,440.35 592.26,440.21 592.71,440.06 593.08,439.91 593.55,439.76 594.04,439.62 594.44,439.48 594.91,439.36 595.18,439.23 595.65,439.09 596.13,438.94 596.50,438.78 596.95,438.60 597.42,438.41 597.74,438.22 598.28,438.03 598.64,437.86 598.98,437.70 599.49,437.55 599.86,437.41 600.30,437.26 600.69,437.11 601.18,436.93 601.64,436.75 601.99,436.56 602.48,436.37 602.87,436.17 603.33,435.97 603.72,435.76 604.07,435.55 604.54,435.34 604.94,435.14 605.40,434.95 605.78,434.77 606.22,434.61 606.73,434.44 607.07,434.26 607.54,434.04 607.97,433.79 608.30,433.54 608.75,433.29 609.17,433.06 609.62,432.84 610.07,432.64 610.44,432.45 610.94,432.26 611.31,432.07 611.77,431.86 612.15,431.63 612.51,431.40 612.97,431.16 613.36,430.93 613.84,430.69 614.32,430.45 614.66,430.20 615.16,429.95 615.53,429.71 616.03,429.47 616.44,429.25 616.73,429.04 617.21,428.80 617.62,428.53 618.04,428.25 618.54,427.97 618.84,427.69 619.37,427.42 619.73,427.16 620.23,426.91 620.57,426.66 620.97,426.41 621.43,426.15 621.84,425.90 622.28,425.66 622.74,425.44 623.11,425.23 623.60,425.00 623.96,424.77 624.44,424.52 624.80,424.25 625.18,423.97 625.64,423.69 626.03,423.41 626.43,423.15 626.96,422.91 627.33,422.67 627.84,422.44 628.19,422.17 628.66,421.90 629.04,421.62 629.41,421.35 629.87,421.10 630.28,420.85 630.72,420.60 631.20,420.35 631.56,420.10 632.04,419.85 632.43,419.59 632.89,419.32 633.27,419.04 633.67,418.76 634.10,418.48 634.52,418.23 634.95,417.99 635.32,417.74 635.80,417.48 636.26,417.20 636.64,416.90 637.11,416.60 637.48,416.31 637.86,416.03 638.32,415.76 638.76,415.51 639.12,415.27 639.65,415.04 640.01,414.79 640.50,414.53 640.85,414.25 641.34,413.97 641.72,413.69 642.09,413.41 642.53,413.14 642.94,412.85 643.40,412.54 643.76,412.22 644.18,411.90 644.72,411.58 645.08,411.29 645.45,411.03 645.86,410.79 646.29,410.54 646.76,410.28 647.14,410.00 647.63,409.71 647.98,409.41 648.41,409.11 648.94,408.81 649.31,408.53 649.78,408.26 650.15,408.01 650.52,407.78 650.98,407.55 651.35,407.33 651.82,407.11 652.20,406.88 652.67,406.65 653.17,406.42 653.53,406.19 654.00,405.97 654.38,405.77 654.76,405.59 655.21,405.42 655.62,405.25 656.05,405.07 656.55,404.87 656.90,404.66 657.38,404.45 657.76,404.26 658.12,404.10 658.61,403.96 658.96,403.83 659.45,403.72 659.81,403.61 660.39,403.50 660.75,403.38 661.12,403.25 661.59,403.11 661.97,402.97 662.45,402.84 662.81,402.72 663.19,402.63 663.65,402.55 664.08,402.48 664.51,402.40 664.99,402.32 665.34,402.23 665.84,402.15 666.20,402.10 666.69,402.05 667.08,402.02 667.41,401.98 667.98,401.92 668.27,401.84 668.83,401.77 669.09,401.72 669.56,401.69 670.04,401.68 670.40,401.68 670.90,401.68 671.24,401.68 671.65,401.66 672.10,401.64 672.47,401.62 672.95,401.62 673.44,401.63 673.79,401.64 674.27,401.63 674.64,401.63 675.10,401.65 675.49,401.69 675.90,401.77 676.31,401.87 676.77,401.97 677.18,402.04 677.66,402.08 678.01,402.08 678.49,402.07 678.87,402.09 679.35,402.18 679.73,402.31 680.08,402.45 680.55,402.57 680.91,402.66 681.40,402.74 681.89,402.81 682.25,402.91 682.74,403.03 683.10,403.17 683.54,403.32 683.92,403.46 684.31,403.59 684.77,403.72 685.14,403.83 685.73,403.95 686.09,404.07 686.43,404.20 686.95,404.35 687.32,404.53 687.79,404.72 688.16,404.90 688.52,405.06 688.98,405.20 689.38,405.34 689.78,405.46 690.22,405.58 690.68,405.73 691.19,405.91 691.54,406.12 692.03,406.33 692.42,406.53 692.75,406.74 693.20,406.96 693.64,407.16 694.05,407.34 694.53,407.51 694.90,407.70 695.39,407.90 695.77,408.11 696.22,408.33 696.61,408.55 696.97,408.79 697.43,409.05 697.81,409.30 698.28,409.52 698.77,409.72 699.13,409.91 699.60,410.10 699.98,410.31 700.45,410.55 700.84,410.82 701.21,411.10 701.67,411.39 702.11,411.68 702.50,411.96 702.88,412.22 703.33,412.45 703.85,412.65 704.22,412.84 704.57,413.03 705.03,413.27 705.46,413.55 705.88,413.86 706.32,414.17 706.77,414.46 707.23,414.74 707.57,415.01 708.07,415.27 708.43,415.55 708.89,415.84 709.27,416.14 709.69,416.42 710.10,416.67 710.54,416.92 710.91,417.18 711.42,417.48 711.80,417.82 712.26,418.18 712.66,418.51 713.01,418.78 713.48,419.00 713.87,419.19 714.32,419.41 714.72,419.71 715.28,420.08 715.66,420.50 715.99,420.91 716.49,421.27 716.86,421.58 717.23,421.83 717.71,422.03 718.13,422.23 718.55,422.45 718.99,422.71 719.34,423.03 719.89,423.40 720.21,423.79 720.71,424.17 721.08,424.53 721.55,424.86 721.93,425.13 722.36,425.33 722.79,425.52 723.19,425.76 723.57,426.11 724.08,426.51 724.46,426.90 724.96,427.23 725.31,427.52 725.79,427.79 726.15,428.05 726.54,428.30 726.99,428.56 727.40,428.83 727.94,429.11 728.21,429.40 728.70,429.72 729.18,430.07 729.54,430.43 730.00,430.77 730.39,431.08 730.77,431.34 731.22,431.54 731.60,431.69 732.18,431.87 732.44,432.10 732.91,432.41 733.41,432.77 733.77,433.17 734.12,433.55 734.59,433.88 734.98,434.17 735.44,434.45 735.81,434.72 736.28,435.00 736.65,435.30 737.14,435.58 737.61,435.86 737.99,436.14 738.47,436.43 738.84,436.74 739.25,437.08 739.66,437.45 740.11,437.84 740.51,438.24 741.02,438.60 741.36,438.94 741.85,439.27 742.23,439.58 742.69,439.87 743.06,440.18 743.42,440.51 743.90,440.85 744.34,441.20 744.68,441.57 745.21,441.94 745.58,442.32 746.06,442.71 746.43,443.12 746.79,443.52 747.29,443.90 747.66,444.23 748.12,444.52 748.53,444.79 749.06,445.13 749.45,445.55 749.77,446.05 750.31,446.55 750.67,447.01 751.13,447.38 751.50,447.67 751.92,447.91 752.33,448.14 752.75,448.41 753.29,448.76 753.56,449.20 754.00,449.70 754.50,450.22 754.87,450.70 755.35,451.10 755.72,451.45 756.09,451.77 756.57,452.09 756.92,452.41 757.42,452.74 757.89,453.10 758.25,453.50 758.75,453.92 759.11,454.36 759.58,454.78 759.96,455.17 760.33,455.54 760.89,455.93 761.21,456.34 761.62,456.77 762.12,457.22 762.47,457.66 762.97,458.05 763.31,458.41 763.81,458.72 764.18,459.05 764.55,459.41 765.01,459.84 765.38,460.30 765.80,460.75 766.35,461.19 766.70,461.61 767.18,461.98 767.56,462.32 768.03,462.65 768.39,463.01 768.76,463.41 769.23,463.84 769.62,464.27 770.06,464.70 770.45,465.14 770.92,465.54 771.41,465.90 771.77,466.25 772.24,466.62 772.61,467.02 773.05,467.44 773.46,467.85 773.86,468.25 774.31,468.66 774.79,469.09 775.14,469.52 775.65,469.92 776.00,470.30 776.36,470.68 776.85,471.08 777.23,471.49 777.67,471.92 778.07,472.34 778.46,472.74 779.00,473.12 779.37,473.46 779.86,473.81 780.23,474.18 780.70,474.57 781.07,474.98 781.44,475.40 781.89,475.83 782.26,476.25 782.75,476.67 783.24,477.09 783.59,477.49 784.09,477.90 784.45,478.33 784.91,478.77 785.31,479.20 785.66,479.60 786.13,479.94 786.54,480.25 786.91,480.57 787.35,480.95 787.81,481.38 788.31,481.85 788.69,482.32 789.05,482.77 789.52,483.17 789.89,483.54 790.33,483.92 790.77,484.34 791.20,484.79 791.69,485.26 792.01,485.70 792.54,486.06 792.90,486.35 793.36,486.58 793.75,486.83 794.15,487.16 794.67,487.58 794.93,488.06 795.40,488.55 795.90,488.98 796.26,489.32 796.74,489.56 797.10,489.75 797.59,489.95 797.94,490.19 798.35,490.48 798.91,490.81 799.17,491.15 799.65,491.50 800.13,491.87 800.48,492.22 800.99,492.52 801.33,492.76 801.71,492.95 802.16,493.10 802.59,493.26 803.02,493.44 803.38,493.67 803.80,493.94 804.25,494.26 804.68,494.58 805.17,494.87 805.56,495.10 806.03,495.31 806.40,495.49 806.82,495.66 807.23,495.84 807.62,496.02 808.03,496.22 808.58,496.40 808.93,496.58 809.41,496.77 809.77,496.96 810.26,497.18 810.62,497.42 811.00,497.64 811.45,497.83 811.89,498.02 812.32,498.20 812.78,498.36 813.15,498.50 813.62,498.63 814.02,498.74 814.37,498.86 814.83,498.99 815.26,499.15 815.68,499.33 816.06,499.54 816.53,499.74 817.02,499.92 817.37,500.10 817.87,500.25 818.23,500.36 818.70,500.43 819.08,500.50 819.44,500.59 819.90,500.73 820.35,500.90 820.71,501.06 821.12,501.19 821.55,501.29 822.09,501.38 822.46,501.50 822.81,501.61 823.28,501.73 823.67,501.85 824.13,501.99 824.54,502.09 824.98,502.19 825.48,502.26 825.82,502.30 826.30,502.34 826.68,502.40 827.04,502.52 827.52,502.68 827.93,502.85 828.35,503.02 828.78,503.17 829.19,503.15 829.68,503.05 830.12,502.90 830.41,502.73 830.88,502.59 831.33,502.51 831.77,502.50 832.21,502.52 832.54,502.55 832.99,502.57 833.43,502.55 833.93,502.48 834.35,502.35 834.76,502.16 835.11,501.98 835.56,501.87 836.00,501.85 836.43,501.89 836.91,501.95 837.24,501.99 837.64,501.95 838.11,501.79 838.57,501.59 838.86,501.43 839.34,501.34 839.77,501.30 840.18,501.26 840.65,501.22 840.98,501.16 841.45,501.11 841.89,501.05 842.34,500.97 842.80,500.90 843.21,500.85 843.57,500.83 844.00,500.79 844.40,500.73 844.88,500.66 845.35,500.57 845.62,500.48 846.09,500.40 846.59,500.34 846.89,500.31 847.31,500.26 847.78,500.22 848.22,500.19 848.63,500.16 849.01,500.12 849.58,500.04 849.89,499.93 850.30,499.83 850.80,499.75 851.24,499.69 851.53,499.65 852.00,499.62 852.45,499.58 852.73,499.55" fill="none" stroke="#2563eb" stroke-width="2.0"/>
<line x1="745" y1="51" x2="770" y2="51" stroke="#2563eb" stroke-width="3"/>
<text x="776" y="55" font-family="sans-serif" font-size="11">distance</text>
</svg>
