<?xml version="1.0" encoding="utf-8" standalone="no"?>
<!DOCTYPE svg PUBLIC "-//W3C//DTD SVG 1.1//EN"
  "http://www.w3.org/Graphics/SVG/1.1/DTD/svg11.dtd">
<svg xmlns:xlink="http://www.w3.org/1999/xlink" width="720pt" height="273.6pt" viewBox="0 0 720 273.6" xmlns="http://www.w3.org/2000/svg" version="1.1">
 <metadata>
  <rdf:RDF xmlns:dc="http://purl.org/dc/elements/1.1/" xmlns:cc="http://creativecommons.org/ns#" xmlns:rdf="http://www.w3.org/1999/02/22-rdf-syntax-ns#">
   <cc:Work>
    <dc:type rdf:resource="http://purl.org/dc/dcmitype/StillImage"/>
    <dc:format>image/svg+xml</dc:format>
    <dc:creator>
     <cc:Agent>
      <dc:title>Matplotlib v3.11.2, https://matplotlib.org/</dc:title>
     </cc:Agent>
    </dc:creator>
   </cc:Work>
  </rdf:RDF>
 </metadata>
 <defs>
  <style type="text/css">*{stroke-linejoin: round; stroke-linecap: butt}</style>
 </defs>
 <g id="figure_1">
  <g id="patch_1">
   <path d="M 0 273.6 
L 720 273.6 
L 720 0 
L 0 0 
z
" style="fill: #ffffff"/>
  </g>
  <g id="axes_1">
   <g id="patch_2">
    <path d="M 24.069078 145.002465 
L 239.439425 145.002465 
Q 241.780407 145.002465 241.780407 144.107967 
L 241.780407 70.759109 
Q 241.780407 69.86461 239.439425 69.86461 
L 24.069078 69.86461 
Q 21.728096 69.86461 21.728096 70.759109 
L 21.728096 144.107967 
Q 21.728096 145.002465 24.069078 145.002465 
z
" clip-path="url(#p50af553318)" style="fill: #dceee8; stroke: #b2c9be; stroke-linejoin: miter"/>
   </g>
   <g id="patch_3">
    <path d="M 258.167282 145.002465 
L 473.537629 145.002465 
Q 475.878611 145.002465 475.878611 144.107967 
L 475.878611 70.759109 
Q 475.878611 69.86461 473.537629 69.86461 
L 258.167282 69.86461 
Q 255.8263 69.86461 255.8263 70.759109 
L 255.8263 144.107967 
Q 255.8263 145.002465 258.167282 145.002465 
z
" clip-path="url(#p50af553318)" style="fill: #dceee8; stroke: #b2c9be; stroke-linejoin: miter"/>
   </g>
   <g id="patch_4">
    <path d="M 492.265485 145.002465 
L 707.635832 145.002465 
Q 709.976814 145.002465 709.976814 144.107967 
L 709.976814 70.759109 
Q 709.976814 69.86461 707.635832 69.86461 
L 492.265485 69.86461 
Q 489.924503 69.86461 489.924503 70.759109 
L 489.924503 144.107967 
Q 489.924503 145.002465 492.265485 145.002465 
z
" clip-path="url(#p50af553318)" style="fill: #dceee8; stroke: #b2c9be; stroke-linejoin: miter"/>
   </g>
   <g id="patch_5">
    <path d="M 24.069078 234.452293 
L 239.439425 234.452293 
Q 241.780407 234.452293 241.780407 233.557795 
L 241.780407 160.208936 
Q 241.780407 159.314438 239.439425 159.314438 
L 24.069078 159.314438 
Q 21.728096 159.314438 21.728096 160.208936 
L 21.728096 233.557795 
Q 21.728096 234.452293 24.069078 234.452293 
z
" clip-path="url(#p50af553318)" style="fill: #dceee8; stroke: #b2c9be; stroke-linejoin: miter"/>
   </g>
   <g id="patch_6">
    <path d="M 258.167282 234.452293 
L 473.537629 234.452293 
Q 475.878611 234.452293 475.878611 233.557795 
L 475.878611 160.208936 
Q 475.878611 159.314438 473.537629 159.314438 
L 258.167282 159.314438 
Q 255.8263 159.314438 255.8263 160.208936 
L 255.8263 233.557795 
Q 255.8263 234.452293 258.167282 234.452293 
z
" clip-path="url(#p50af553318)" style="fill: #dceee8; stroke: #b2c9be; stroke-linejoin: miter"/>
   </g>
   <g id="patch_7">
    <path d="M 492.265485 234.452293 
L 707.635832 234.452293 
Q 709.976814 234.452293 709.976814 233.557795 
L 709.976814 160.208936 
Q 709.976814 159.314438 707.635832 159.314438 
L 492.265485 159.314438 
Q 489.924503 159.314438 489.924503 160.208936 
L 489.924503 233.557795 
Q 489.924503 234.452293 492.265485 234.452293 
z
" clip-path="url(#p50af553318)" style="fill: #dceee8; stroke: #b2c9be; stroke-linejoin: miter"/>
   </g>
   <g id="text_1">
    <text style="font-weight: 700; font-size: 10px; font-family: 'DejaVu Sans'; text-anchor: middle" x="131.754252" y="48.396652" transform="rotate(-0 131.754252 48.396652)">L0: status only</text>
   </g>
   <g id="text_2">
    <text style="font-weight: 700; font-size: 10px; font-family: 'DejaVu Sans'; text-anchor: middle" x="365.852455" y="48.396652" transform="rotate(-0 365.852455 48.396652)">L1: adjacent measurement</text>
   </g>
   <g id="text_3">
    <text style="font-weight: 700; font-size: 10px; font-family: 'DejaVu Sans'; text-anchor: middle" x="599.950658" y="48.396652" transform="rotate(-0 599.950658 48.396652)">L2: sampled interval</text>
   </g>
   <g id="text_4">
    <text style="font-size: 9px; font-family: 'DejaVu Sans'; text-anchor: middle" x="131.754252" y="90.438071" transform="rotate(-0 131.754252 90.438071)">Known route</text>
   </g>
   <g id="text_5">
    <text style="font-weight: 700; font-size: 10px; font-family: 'DejaVu Sans'; text-anchor: middle" x="131.754252" y="111.906029" transform="rotate(-0 131.754252 111.906029)">15/15 reviewed claims supported</text>
   </g>
   <g id="text_6">
    <text style="font-size: 9px; font-family: 'DejaVu Sans'; text-anchor: middle" x="131.754252" y="131.584991" transform="rotate(-0 131.754252 131.584991)">4/4 required units; limits preserved</text>
   </g>
   <g id="text_7">
    <text style="font-size: 9px; font-family: 'DejaVu Sans'; text-anchor: middle" x="365.852455" y="90.438071" transform="rotate(-0 365.852455 90.438071)">Known route</text>
   </g>
   <g id="text_8">
    <text style="font-weight: 700; font-size: 10px; font-family: 'DejaVu Sans'; text-anchor: middle" x="365.852455" y="111.906029" transform="rotate(-0 365.852455 111.906029)">18/18 reviewed claims supported</text>
   </g>
   <g id="text_9">
    <text style="font-size: 9px; font-family: 'DejaVu Sans'; text-anchor: middle" x="365.852455" y="131.584991" transform="rotate(-0 365.852455 131.584991)">4/4 required units; limits preserved</text>
   </g>
   <g id="text_10">
    <text style="font-size: 9px; font-family: 'DejaVu Sans'; text-anchor: middle" x="599.950658" y="90.438071" transform="rotate(-0 599.950658 90.438071)">Known route</text>
   </g>
   <g id="text_11">
    <text style="font-weight: 700; font-size: 10px; font-family: 'DejaVu Sans'; text-anchor: middle" x="599.950658" y="111.906029" transform="rotate(-0 599.950658 111.906029)">25/25 reviewed claims supported</text>
   </g>
   <g id="text_12">
    <text style="font-size: 9px; font-family: 'DejaVu Sans'; text-anchor: middle" x="599.950658" y="131.584991" transform="rotate(-0 599.950658 131.584991)">4/4 required units; limits preserved</text>
   </g>
   <g id="text_13">
    <text style="font-size: 9px; font-family: 'DejaVu Sans'; text-anchor: middle" x="131.754252" y="179.887898" transform="rotate(-0 131.754252 179.887898)">Direct route</text>
   </g>
   <g id="text_14">
    <text style="font-weight: 700; font-size: 10px; font-family: 'DejaVu Sans'; text-anchor: middle" x="131.754252" y="201.355857" transform="rotate(-0 131.754252 201.355857)">15/15 reviewed claims supported</text>
   </g>
   <g id="text_15">
    <text style="font-size: 9px; font-family: 'DejaVu Sans'; text-anchor: middle" x="131.754252" y="221.034819" transform="rotate(-0 131.754252 221.034819)">4/4 required units; limits preserved</text>
   </g>
   <g id="text_16">
    <text style="font-size: 9px; font-family: 'DejaVu Sans'; text-anchor: middle" x="365.852455" y="179.887898" transform="rotate(-0 365.852455 179.887898)">Direct route</text>
   </g>
   <g id="text_17">
    <text style="font-weight: 700; font-size: 10px; font-family: 'DejaVu Sans'; text-anchor: middle" x="365.852455" y="201.355857" transform="rotate(-0 365.852455 201.355857)">18/18 reviewed claims supported</text>
   </g>
   <g id="text_18">
    <text style="font-size: 9px; font-family: 'DejaVu Sans'; text-anchor: middle" x="365.852455" y="221.034819" transform="rotate(-0 365.852455 221.034819)">4/4 required units; limits preserved</text>
   </g>
   <g id="text_19">
    <text style="font-size: 9px; font-family: 'DejaVu Sans'; text-anchor: middle" x="599.950658" y="179.887898" transform="rotate(-0 599.950658 179.887898)">Direct route</text>
   </g>
   <g id="text_20">
    <text style="font-weight: 700; font-size: 10px; font-family: 'DejaVu Sans'; text-anchor: middle" x="599.950658" y="201.355857" transform="rotate(-0 599.950658 201.355857)">25/25 reviewed claims supported</text>
   </g>
   <g id="text_21">
    <text style="font-size: 9px; font-family: 'DejaVu Sans'; text-anchor: middle" x="599.950658" y="221.034819" transform="rotate(-0 599.950658 221.034819)">4/4 required units; limits preserved</text>
   </g>
   <g id="text_22">
    <text style="font-size: 13px; font-family: 'DejaVu Sans'; text-anchor: start" x="3.00024" y="12.878209" transform="rotate(-0 3.00024 12.878209)">Marine explanation accuracy across removal-only evidence levels</text>
   </g>
  </g>
  <g id="text_23">
   <text style="font-size: 9px; font-family: 'DejaVu Sans'; text-anchor: start" x="28.8" y="269.496" transform="rotate(-0 28.8 269.496)">Six inspected answers; two existing recordings. Automated support review, not population accuracy or a comparison effect.</text>
  </g>
 </g>
 <defs>
  <clipPath id="p50af553318">
   <rect x="3.00024" y="18.878209" width="713.99952" height="232.569551"/>
  </clipPath>
 </defs>
</svg>
